<?xml version="1.0" encoding="UTF-8"?>
<svg xmlns="http://www.w3.org/2000/svg" width="255" height="240" viewBox="0 0 51 48">
<title>Five Pointed Star</title>
<path fill="none" stroke="currentColor" d="m25,1 6,17h18l-14,11 5,17-15-10-15,10 5-17-14-11h18z" stroke-width="2"/>
<path
    style="fill:currentColor;stroke-width:0.234524"
    d="m 38.644197,91.904446 c -8.798035,0.02856 -17.598501,-0.02272 -26.394912,0.109933 -1.168197,0.824169 0.830398,1.557792 1.328463,2.156952 21.075611,16.695429 42.289422,33.215379 63.371229,49.902739 -1.334963,6.31361 -3.443913,12.4508 -5.161189,18.67186 -5.92668,20.34797 -12.015812,40.66219 -17.873439,61.0259 0.143243,1.23403 1.53985,0.31578 2.033302,-0.12322 7.546512,-4.94423 15.032427,-9.98016 22.543594,-14.97791 0.526909,-1.82312 0.06928,-3.89315 0.222615,-5.80996 0,-36.81946 0,-73.63893 0,-110.458389 -0.830428,-1.083371 -2.751135,-0.227453 -4.018051,-0.500195 -12.017202,9.81e-4 -24.034407,-0.0023 -36.051612,0.0023 z"
    id="path3304"
    transform="scale(0.2)" />
</svg>
