<?xml version="1.0" encoding="UTF-8"?>
<svg xmlns="http://www.w3.org/2000/svg" width="255" height="240" viewBox="0 0 51 48">
<title
id="title2">Five Pointed Star</title>
<path fill="none" stroke="#000" d="m25,1 6,17h18l-14,11 5,17-15-10-15,10 5-17-14-11h18z" stroke-width="2"/>
<path
    style="fill:#000000;stroke-width:0.203719"
    d="m 124.74566,12.195287 c -1.04336,1.881295 -1.51234,4.100306 -2.34146,6.104452 -8.72464,24.508106 -17.33584,49.056603 -25.996574,73.587475 -28.040805,0.06767 -56.08161,0.13531 -84.122416,0.202922 -1.325404,0.852108 1.058845,1.720996 1.615463,2.403014 21.087944,16.61347 42.313499,33.05182 63.243572,49.86404 -7.698324,26.57931 -15.561676,53.13958 -23.342935,79.69033 0.37326,1.14806 1.53265,-0.0485 2.100361,-0.38552 23.034536,-15.33143 46.054619,-30.68491 69.080329,-46.02978 15.10338,10.02666 30.14344,20.17066 45.29126,30.11684 1.10683,-0.20462 0.50333,-1.71859 0.70343,-2.51327 0.24475,-28.27343 0.0927,-56.54917 0.13811,-84.82354 0,-9.30648 0,-18.61297 0,-27.919451 -0.69351,-1.039692 -2.42791,-0.268889 -3.55269,-0.518899 -4.65624,-0.02863 -9.31249,-0.05706 -13.96873,-0.08549 C 144.2099,65.40186 134.96475,38.865025 125.44077,12.429246 125.2456,12.174399 125.05451,12.1123 124.74566,12.195287 Z"
    id="path3370"
    transform="scale(0.2)" />
</svg>
