<?xml version="1.0" encoding="UTF-8"?>
<svg xmlns="http://www.w3.org/2000/svg" width="255" height="240" viewBox="0 0 51 48">
<title
id="title2">Five Pointed Star</title>
<path fill="none" stroke="currentColor" d="m25,1 6,17h18l-14,11 5,17-15-10-15,10 5-17-14-11h18z" stroke-width="2"/>
<path
    style="fill:currentColor;stroke-width:0.356071"
    d="m 123.94397,13.847125 c -9.24076,25.927644 -18.27485,52.0339 -27.620527,77.859912 -10.22124,0.645581 -20.537622,0.222512 -30.796659,0.369039 -17.768309,0.0045 -35.536618,0.0015 -53.304928,0.0023 -1.173381,1.488768 2.729617,2.694154 3.611621,3.972021 20.435129,16.049403 40.869923,32.099223 61.304559,48.149253 -7.655201,26.52979 -15.546893,53.00589 -23.248234,79.513 0.337438,1.71491 2.204371,-0.31372 2.941078,-0.6537 22.668842,-14.97986 45.25237,-30.08916 67.87322,-45.14175 0.52144,-4.7739 0.0701,-9.79162 0.21964,-14.65871 -0.0103,-49.73124 -0.0201,-99.462481 -0.0298,-149.193721 -0.0291,-0.51092 -0.70705,-0.664703 -0.94999,-0.217676 z"
    transform="scale(0.2)" />
</svg>
