<?xml version="1.0" encoding="UTF-8"?>
<svg xmlns="http://www.w3.org/2000/svg" width="255" height="240" viewBox="0 0 51 48">
<title
    id="title2">Five Pointed Star</title>
<path fill="none" stroke="currentColor" d="m25,1 6,17h18l-14,11 5,17-15-10-15,10 5-17-14-11h18z"/>
<path
    style="fill:currentColor;stroke-width:0.309761"
    d="m 124.93537,12.162359 c -1.27681,1.346186 -1.43455,3.555955 -2.26089,5.218749 -8.76527,24.807225 -17.51705,49.619546 -26.275854,74.429181 -28.041649,0.102894 -56.083297,0.205744 -84.124947,0.308553 -1.306259,1.273939 2.146241,2.31351 2.858963,3.381034 20.5868,16.173004 41.165357,32.357684 61.764344,48.514234 -2.509576,10.66384 -5.935751,21.09979 -8.907327,31.64412 -4.694593,16.13627 -9.56047,32.24696 -14.175926,48.39102 0.573145,1.39376 2.073987,-0.59487 2.87774,-0.85073 22.830996,-15.11268 45.585967,-30.34073 68.373977,-45.51845 23.36012,15.48077 46.53413,31.25141 70.08647,46.43633 1.53423,-0.12318 0.0946,-2.09862 0.0738,-3.0228 -7.24468,-25.71762 -15.14675,-51.24508 -22.23257,-77.00568 21.66833,-17.041 43.36067,-34.05205 65.04258,-51.076095 0.24719,-1.807772 -3.11517,-0.504158 -4.33361,-0.907746 -26.70198,-0.09789 -53.40396,-0.195822 -80.10594,-0.29379 C 144.2355,65.36243 134.97401,38.878455 125.50835,12.46849 c -0.1996,-0.08652 -0.27551,-0.450137 -0.57294,-0.306131 z"
    transform="scale(0.2)" />
</svg>
