<?xml version="1.0" encoding="UTF-8"?>
<svg xmlns="http://www.w3.org/2000/svg" width="255" height="240" viewBox="0 0 51 48">
<title
id="title2">Five Pointed Star</title>
<path fill="none" stroke="#000" d="m25,1 6,17h18l-14,11 5,17-15-10-15,10 5-17-14-11h18z" stroke-width="2"/>
<path
    style="fill:#000000;stroke-width:0.203719"
    d="m 124.74566,12.195287 c -1.04336,1.881295 -1.51234,4.100306 -2.34146,6.104452 -8.72464,24.508106 -17.33584,49.056603 -25.996574,73.587475 -28.040805,0.06767 -56.08161,0.13531 -84.122416,0.202922 -1.325404,0.852108 1.058845,1.720996 1.615463,2.403014 21.087944,16.61347 42.313499,33.05182 63.243572,49.86404 -7.698324,26.57931 -15.561676,53.13958 -23.342935,79.69033 0.37326,1.14806 1.53265,-0.0485 2.100361,-0.38552 23.034536,-15.33143 46.054619,-30.68491 69.080329,-46.02978 15.63195,10.40012 31.22004,20.8671 46.89754,31.19805 1.27024,0.12635 0.61718,-1.62596 0.7887,-2.41994 0.12803,-37.97247 0.0572,-75.9453 0.0763,-113.917928 -0.69373,-1.039727 -2.42817,-0.267758 -3.5531,-0.517163 -5.19936,-0.02896 -10.39872,-0.0579 -15.59808,-0.08683 C 144.2099,65.40186 134.96475,38.865025 125.44077,12.429246 125.2456,12.174399 125.05451,12.1123 124.74566,12.195287 Z"
    id="path1706"
    transform="scale(0.2)" />
</svg>
