<?xml version="1.0" encoding="UTF-8"?>
<svg id="Слой_1" style="enable-background:new 0 0 128 128;" version="1.1" viewBox="0 0 128 128" xml:space="preserve" xmlns="http://www.w3.org/2000/svg" xmlns:xlink="http://www.w3.org/1999/xlink"><style type="text/css">
	.st0{fill:#66CCCC;}
	.st1{fill:#E5E5E5;}
	.st2{fill:#FFFFFF;}
	.st3{fill:#FFCC33;}
	.st4{fill:#FFFFCC;}
	.st5{fill:#FF6666;}
	.st6{fill:#D65656;}
	.st7{fill:#F9AF38;}
	.st8{fill:#CC66FF;}
	.st9{fill:#9966CC;}
	.st10{fill:#FFBB33;}
	.st11{fill:#ED7E7E;}
	.st12{fill:#E56A6A;}
	.st13{fill:#C64F4F;}
	.st14{fill:#CC6633;}
</style><circle class="st0" cx="64" cy="64" r="62"/><g><ellipse class="st1" cx="43.5" cy="54.7584801" rx="19" ry="8.375" transform="matrix(0.9399909 0.3411993 -0.3411993 0.9399909 21.293951 -11.5561676)"/><ellipse class="st1" cx="43.5" cy="72.7584839" rx="19" ry="8.375" transform="matrix(0.89659 -0.4428616 0.4428616 0.89659 -27.7236004 26.788435)"/><ellipse class="st1" cx="55.5" cy="84.7584839" rx="19" ry="8.375" transform="matrix(0.2804584 -0.9598662 0.9598662 0.2804584 -41.4222374 114.2598343)"/><ellipse class="st1" cx="71.5" cy="83.7584839" rx="19" ry="8.375" transform="matrix(-0.4391734 -0.8984023 0.8984023 -0.4391734 27.6520844 184.7787476)"/><ellipse class="st1" cx="83.5" cy="71.7584839" rx="19" ry="8.375" transform="matrix(-0.8866449 -0.4624509 0.4624509 -0.8866449 124.3500748 173.9974213)"/><ellipse class="st1" cx="84.5" cy="55.7584801" rx="19" ry="8.375" transform="matrix(-0.872219 0.4891155 -0.4891155 -0.872219 185.4748383 63.0618286)"/><ellipse class="st1" cx="56.5" cy="44.7584801" rx="19" ry="8.375" transform="matrix(0.3760438 0.9266019 -0.9266019 0.3760438 76.7268219 -24.4256744)"/><ellipse class="st1" cx="73.5" cy="42.7584801" rx="19" ry="8.375" transform="matrix(-0.3034075 0.9528609 -0.9528609 -0.3034075 136.543335 -14.3035517)"/><path class="st2" d="M105.5,63.625c0-4.6254272-8.5065918-8.375-19-8.375c-0.9552002,0-1.8864136,0.0411377-2.803772,0.1011353   c0.6170044-0.5684204,1.2306519-1.1549683,1.833313-1.7801514c7.2827759-7.5546875,10.4870605-16.281311,7.1570435-19.4915161   c-3.3300171-3.210144-11.9334106,0.3118286-19.2161255,7.8665161c-0.2123413,0.2202759-0.4091187,0.4443359-0.6144409,0.6664429   C72.8616333,42.3272705,72.875,42.0467529,72.875,41.7584839c0-10.4934082-3.7496338-19-8.375-19s-8.375,8.5065918-8.375,19   c0,0.4602661,0.0161743,0.9112549,0.0303345,1.3632813c-0.3713989-0.4007568-0.7484741-0.8005371-1.1431885-1.1952515   c-7.4199829-7.4199219-16.0864258-10.7836304-19.3570557-7.5130005   c-3.2706909,3.2706909,0.0930176,11.9371338,7.5130005,19.3570557c0.5669556,0.5669556,1.1425171,1.1015625,1.7210693,1.6199951   C43.7876587,55.3029785,42.6586914,55.25,41.5,55.25c-10.4934082,0-19,3.7495728-19,8.375c0,4.6253662,8.5065918,8.375,19,8.375   c1.6949463,0,3.3294678-0.1072388,4.8932495-0.2907715c-1.0873413,0.8842773-2.1691895,1.8476563-3.2251587,2.9036255   c-7.4199829,7.4199829-10.7836914,16.0864258-7.5130005,19.3570557c3.2706299,3.2706299,11.9370728-0.0930176,19.3570557-7.5130005   c0.3947144-0.3947144,0.7717896-0.7944946,1.1431885-1.1952515C56.1411743,85.7137451,56.125,86.1647339,56.125,86.625   c0,10.4934082,3.7496338,19,8.375,19s8.375-8.5065918,8.375-19c0-0.288269-0.0133667-0.5687866-0.0189819-0.8539429   c0.2053223,0.2221069,0.4020996,0.446167,0.6144409,0.6664429c7.2827148,7.5546875,15.8861084,11.0765991,19.2161255,7.8664551   S92.8123169,82.3671875,85.529541,74.8125c-1.0617065-1.1013184-2.1522217-2.1054077-3.2496338-3.0269775   C83.6389771,71.9215698,85.0474854,72,86.5,72C96.9934082,72,105.5,68.2503662,105.5,63.625z M63.1236572,67.9031372   c-0.1685791-0.2919922-0.3609619-0.5657349-0.5985107-0.8032837c-0.6937866-0.6937866-1.6414795-1.0720215-2.7574463-1.1933594   C60.2337646,65.1802979,60.5,64.4169922,60.5,63.625c0-0.4138794-0.0908203-0.8175049-0.2223511-1.215332   c0.8952637-0.1746826,1.6609497-0.5395508,2.2474976-1.1260986c0.2375488-0.2375488,0.4299316-0.5112915,0.5984497-0.8032227   c0.4487915,0.1687622,0.9064941,0.2781372,1.3764038,0.2781372c0.3930664,0,0.7766724-0.0827637,1.1553345-0.2015991   c0.1835938,0.3224487,0.3927612,0.6247559,0.6580811,0.8805542c0.4057007,0.3911133,0.892334,0.6787109,1.442688,0.8748169   C67.6026001,62.7410278,67.5,63.1772461,67.5,63.625c0,0.8045654,0.2722168,1.579895,0.7526245,2.3163452   c-0.7546387,0.1829224-1.4177856,0.5020142-1.939209,1.0046387c-0.2653809,0.2557983-0.4744873,0.5581055-0.6580811,0.8806152   C65.2766724,67.7077637,64.8930664,67.625,64.5,67.625C64.0300903,67.625,63.5724487,67.734375,63.1236572,67.9031372z"/><circle class="st3" cx="64" cy="64" r="6.375"/><circle class="st4" cx="62.1875" cy="61.1875" r="2.1875"/></g></svg>